<?xml version="1.0" encoding="utf-8"?>
<!-- Generator: Adobe Illustrator 21.0.0, SVG Export Plug-In . SVG Version: 6.00 Build 0)  -->
<svg version="1.1" id="Layer_1" xmlns="http://www.w3.org/2000/svg" xmlns:xlink="http://www.w3.org/1999/xlink" x="0px" y="0px"
	 viewBox="0 0 512 512" style="enable-background:new 0 0 512 512;" xml:space="preserve">
<style type="text/css">
	.st0{fill:#B0B7BD;}
	.st1{fill:#CAD1D8;}
	.st2{fill:#E2E5E7;}
	.st3{fill:#576D7E;}
	.st4{fill:#FFFFFF;}
</style>
<g>
	<path class="st0" d="M128,103c-17.6,0-32,14.4-32,32v311c0,17.6,14.4,32,32,32h320c17.6,0,32-14.4,32-32V217v-40.4
		c0-10.3-8.3-18.6-18.6-18.6H268v-30.9c0-13.3-10.8-24.1-24.1-24.1H128z"/>
	<path class="st1" d="M480,254.1l-96-96h77.7c10.1,0,18.3,8.2,18.3,18.3V254.1z"/>
	<path class="st2" d="M96,209.2V446c0,17.6,14.4,32,32,32h320c17.6,0,32-14.4,32-32V235v-25.8H96z"/>
</g>
<path class="st3" d="M416,416c0,8.8-7.2,16-16,16H48c-8.8,0-16-7.2-16-16V256c0-8.8,7.2-16,16-16h352c8.8,0,16,7.2,16,16V416z"/>
<g>
	<path class="st4" d="M109.9,384c-4.2,0-8.8-2.3-8.8-7.9v-72.7c0-4.6,4.6-7.9,8.8-7.9h29.3c58.5,0,57.2,88.5,1.2,88.5H109.9z
		 M118,311.1v57.3h21.2c34.5,0,36.1-57.3,0-57.3L118,311.1L118,311.1z"/>
	<path class="st4" d="M289.9,378.1c0,11.1-17,11.5-17,0.3v-72.7c0-4.5,3.5-7.8,7.7-7.8h34c32.5,0,39.2,43.5,12,54.4l17,20.7
		c6.7,9.9-6.7,19.3-14.3,9.6L310,355h-20.1L289.9,378.1L289.9,378.1z M289.9,340.3h24.7c16.6,0,17.7-26.9,0-26.9h-24.7V340.3z"/>
	<path class="st4" d="M215.6,305.8c0-10.5,16.9-10.9,16.9,0v73c0,10.6-16.9,10.9-16.9,0V305.8z"/>
</g>
<path class="st1" d="M400,432H96v16h304c8.8,0,16-7.2,16-16v-16C416,424.8,408.8,432,400,432z"/>
</svg>
